<svg width="28" height="28" viewBox="0 0 28 28" fill="none" xmlns="http://www.w3.org/2000/svg">
<path d="M2.33337 9.83333C2.33337 7.94772 2.33337 7.00491 2.91916 6.41912C3.50495 5.83333 4.44776 5.83333 6.33337 5.83333H21.6667C23.5523 5.83333 24.4951 5.83333 25.0809 6.41912C25.6667 7.00491 25.6667 7.94772 25.6667 9.83333V10.6667C25.6667 11.1381 25.6667 11.3738 25.5203 11.5202C25.3738 11.6667 25.1381 11.6667 24.6667 11.6667H3.33337C2.86197 11.6667 2.62627 11.6667 2.47982 11.5202C2.33337 11.3738 2.33337 11.1381 2.33337 10.6667V9.83333Z" fill="#222222"/>
<path d="M24.667 14C25.1382 14 25.3741 14.0001 25.5205 14.1465C25.6668 14.2929 25.667 14.5288 25.667 15V21.667C25.667 23.5524 25.6668 24.4953 25.0811 25.0811C24.4953 25.6668 23.5524 25.667 21.667 25.667H6.33301C4.44761 25.667 3.5047 25.6668 2.91895 25.0811C2.33319 24.4953 2.33301 23.5524 2.33301 21.667V15C2.33301 14.5288 2.33321 14.2929 2.47949 14.1465C2.62591 14.0001 2.86182 14 3.33301 14H24.667ZM9.16699 21C8.69576 21 8.45994 21.0002 8.31348 21.1465C8.16703 21.2929 8.16699 21.5286 8.16699 22V22.333C8.16699 22.8044 8.16703 23.0401 8.31348 23.1865C8.45992 23.333 8.69559 23.333 9.16699 23.333H11.833C12.3044 23.333 12.5401 23.333 12.6865 23.1865C12.833 23.0401 12.833 22.8044 12.833 22.333V22C12.833 21.5286 12.833 21.2929 12.6865 21.1465C12.5401 21.0002 12.3042 21 11.833 21H9.16699ZM16.167 21C15.6958 21 15.4599 21.0002 15.3135 21.1465C15.167 21.2929 15.167 21.5286 15.167 22V22.333C15.167 22.8044 15.167 23.0401 15.3135 23.1865C15.4599 23.333 15.6956 23.333 16.167 23.333H18.833C19.3044 23.333 19.5401 23.333 19.6865 23.1865C19.833 23.0401 19.833 22.8044 19.833 22.333V22C19.833 21.5286 19.833 21.2929 19.6865 21.1465C19.5401 21.0002 19.3042 21 18.833 21H16.167ZM9.16699 16.333C8.69594 16.333 8.45995 16.3334 8.31348 16.4795C8.16706 16.6259 8.16699 16.8618 8.16699 17.333V17.667C8.16699 18.1382 8.16706 18.3741 8.31348 18.5205C8.45995 18.6666 8.69594 18.667 9.16699 18.667H11.833C12.3041 18.667 12.5401 18.6666 12.6865 18.5205C12.8329 18.3741 12.833 18.1382 12.833 17.667V17.333C12.833 16.8618 12.8329 16.6259 12.6865 16.4795C12.5401 16.3334 12.3041 16.333 11.833 16.333H9.16699ZM16.167 16.333C15.6959 16.333 15.4599 16.3334 15.3135 16.4795C15.1671 16.6259 15.167 16.8618 15.167 17.333V17.667C15.167 18.1382 15.1671 18.3741 15.3135 18.5205C15.4599 18.6666 15.6959 18.667 16.167 18.667H18.833C19.3041 18.667 19.5401 18.6666 19.6865 18.5205C19.8329 18.3741 19.833 18.1382 19.833 17.667V17.333C19.833 16.8618 19.8329 16.6259 19.6865 16.4795C19.5401 16.3334 19.3041 16.333 18.833 16.333H16.167Z" fill="#222222"/>
<path d="M8.16663 3.5L8.16663 7" stroke="#222222" stroke-width="2" stroke-linecap="round"/>
<path d="M19.8334 3.5L19.8334 7" stroke="#222222" stroke-width="2" stroke-linecap="round"/>
</svg>
